<svg viewBox="-10 -8 20 16" version="1.1" id="un-mute" sodipodi:docname="un-mute.svg" inkscape:version="1.2.1 (9c6d41e410, 2022-07-14)" width="20" height="16" xmlns:inkscape="http://www.inkscape.org/namespaces/inkscape" xmlns:sodipodi="http://sodipodi.sourceforge.net/DTD/sodipodi-0.dtd" xmlns="http://www.w3.org/2000/svg" xmlns:svg="http://www.w3.org/2000/svg"> <path d="m -0.25788653,-6.8147581 c 0.359375,0.1625 0.5906256,0.51875 0.5906256,0.9125 V 6.0977415 c 0,0.39375 -0.2312506,0.75 -0.5906256,0.9125 -0.3593752,0.1625 -0.78125017,0.09688 -1.07500017,-0.165625 l -4.215625,-3.746875 h -2.11875 c -1.1031251,0 -1.9999994,-0.896875 -1.9999994,-1.9999996 v -2.00000003 c 0,-1.10312497 0.8968743,-1.99999997 1.9999994,-1.99999997 h 2.11875 l 4.215625,-3.746875 c 0.29375,-0.2625 0.71562497,-0.325 1.07500017,-0.165625 z" id="speaker" style="stroke-width:0.03125" /> <path style="fill-opacity:1;stroke:none;stroke-width:0.03125" id="sound" d="m 5.8318582,-7.1829076 c -0.240539,-0.0213 -0.486877,0.07245 -0.648987,0.273621 -0.259374,0.321875 -0.212499,0.7937136 0.109375,1.0562126 1.693749,1.378124 2.771851,3.471902 2.771851,5.82190007 0,2.34999643 -1.078102,4.44372643 -2.771851,5.81872443 -0.321874,0.2625 -0.371874,0.7344 -0.109375,1.056275 0.2625,0.321875 0.734339,0.371875 1.056214,0.109375 2.028123,-1.646874 3.3250117,-4.165628 3.3250117,-6.98437443 0,-2.81874707 -1.2968887,-5.33437707 -3.3250117,-6.98437467 v -0.0031 c -0.120703,-0.09727 -0.262903,-0.151465 -0.407227,-0.164246 z m -1.96289,2.3251956 c -0.216719,0.0015 -0.430823,0.0955 -0.576722,0.27655 -0.259374,0.321875 -0.212499,0.793714 0.109375,1.056213 1.015624,0.828125 1.662476,2.084401 1.662476,3.49377507 0,1.40937293 -0.646852,2.66560043 -1.662476,3.49059943 -0.321874,0.2625 -0.371874,0.7344 -0.109375,1.056275 0.2625,0.321875 0.734339,0.371875 1.056214,0.109375 1.349999,-1.099999 2.215637,-2.7781265 2.215637,-4.65624943 0,-1.87812307 -0.865638,-3.55625107 -2.215637,-4.65625007 v -0.0031 c -0.140821,-0.113489 -0.310933,-0.168331 -0.479492,-0.167188 z m -1.8906251,2.328125 c -0.216719,0.0015 -0.430823,0.0955 -0.576722,0.27655 -0.259374,0.321875 -0.212499,0.793714 0.109375,1.056213 0.3375,0.27812497 0.553101,0.69690007 0.553101,1.16564997 0,0.4687491 -0.215601,0.8874761 -0.553101,1.16247503 -0.321874,0.2625 -0.371874,0.7344 -0.109375,1.0562745 0.2625,0.321875 0.7343391,0.371875 1.0562141,0.109375 0.671874,-0.5499995 1.106262,-1.38750053 1.106262,-2.32812453 0,-0.940624 -0.434388,-1.77812597 -1.106262,-2.32812497 v -0.0031 C 2.3170142,-2.475875 2.1469022,-2.530717 1.9783431,-2.529574 Z" inkscape:transform-center-x="-4.065864" /> </svg>